<svg xmlns="http://www.w3.org/2000/svg" viewBox="0 0 21 21" height="21" width="21"><title>building-15.svg</title><rect fill="none" x="0" y="0" width="21" height="21"></rect><rect x="1" y="1" rx="3.5" ry="3.5" width="19" height="19" stroke="#242323" style="stroke-linejoin:round;stroke-miterlimit:4;" fill="#242323" stroke-width="2"></rect><rect x="1" y="1" width="19" height="19" rx="3.5" ry="3.5" fill="#d9d7d7"></rect><path fill="#000" transform="translate(3 3)" d="M3,2v11h5v-3h3v3h1V2H3z M7,12H4v-2h3V12z M7,9H4V7h3V9z M7,6H4V4h3V6z M11,9H8V7h3V9z M11,6H8V4h3V6z"></path></svg>