<svg xmlns="http://www.w3.org/2000/svg" viewBox="0 0 21 21" height="21" width="21"><title>campsite-15.svg</title><rect fill="none" x="0" y="0" width="21" height="21"></rect><rect x="1" y="1" rx="3.5" ry="3.5" width="19" height="19" stroke="#242323" style="stroke-linejoin:round;stroke-miterlimit:4;" fill="#242323" stroke-width="2"></rect><rect x="1" y="1" width="19" height="19" rx="3.5" ry="3.5" fill="#d9d7d7"></rect><path fill="#000" transform="translate(3 3)" d="M7,1.5
	l-5.5,9H1c-1,0-1,1-1,1v1c0,0,0,1,1,1h13c1,0,1-1,1-1v-1c0,0,0-1-1-1h-0.5L8,1.5C7.8,1.1,7.2,1.1,7,1.5z M7.5,5l3.2,5.5H4.2L7.5,5z"></path></svg>