<svg xmlns="http://www.w3.org/2000/svg" viewBox="0 0 21 21" height="21" width="21"><title>hospital-15.svg</title><rect fill="none" x="0" y="0" width="21" height="21"></rect><rect x="1" y="1" rx="3.5" ry="3.5" width="19" height="19" stroke="#242323" style="stroke-linejoin:round;stroke-miterlimit:4;" fill="#242323" stroke-width="2"></rect><rect x="1" y="1" width="19" height="19" rx="3.5" ry="3.5" fill="#d9d7d7"></rect><path fill="#000" transform="translate(3 3)" d="M7,1C6.4,1,6,1.4,6,2v4H2C1.4,6,1,6.4,1,7v1
	c0,0.6,0.4,1,1,1h4v4c0,0.6,0.4,1,1,1h1c0.6,0,1-0.4,1-1V9h4c0.6,0,1-0.4,1-1V7c0-0.6-0.4-1-1-1H9V2c0-0.6-0.4-1-1-1H7z"></path></svg>