<?xml version="1.0" encoding="utf-8"?>
<!-- Generator: Adobe Illustrator 21.0.2, SVG Export Plug-In . SVG Version: 6.00 Build 0)  -->
<svg version="1.1" id="Layer_1" xmlns="http://www.w3.org/2000/svg" xmlns:xlink="http://www.w3.org/1999/xlink" x="0px" y="0px"
	 viewBox="0 0 15.5 15.5" style="enable-background:new 0 0 15.5 15.5;" xml:space="preserve">
<style type="text/css">
	.st0{fill:#FFFFFF;}
	.st1{fill:none;}
</style>
<g>
	<path class="st0" d="M10.3,12.4H5.6c-1,0-1.8-0.8-1.8-1.8V5.6c0-1,0.8-1.8,1.8-1.8h4.8c1,0,1.8,0.8,1.8,1.8v4.9
		C12.1,11.5,11.3,12.4,10.3,12.4z"/>
	<g>
		<path class="st1" d="M11.8,10.6V5.6c0-0.6-0.5-1.1-1.1-1.1H5.6C5,4.4,4.4,4.9,4.4,5.6v1.3C5,6.6,5.3,6.5,5.3,6.5S5.2,6.1,5.3,5.7
			c0-0.3,0.5-0.3,0.7-0.3c0.2,0,0.7,0.2,0.8,0.4C7,6.2,7.3,6.4,7.3,6.4s0.7,0,1.2,0.1c0.6,0.1,0.7,0.2,0.8,0.4
			c0.2,0.2,0.1,0.2,0.4,0.3c0.2,0.1,1.5,0.3,1.5,0.3s0.1,0.1,0.1,0.2c0,0.1-0.1,0.3-0.1,0.3s0.1,0.3-0.1,0.5c-0.2,0.3-0.5,0.5-1,0.7
			C9.6,9.4,9.3,9.3,8.8,9.5c-0.5,0.2-1.5,0.9-1.7,1.2c-0.2,0.3-0.5,0.6-0.5,1h4C11.3,11.8,11.8,11.2,11.8,10.6z"/>
		<path d="M11.8,14.8c0-0.1,0-0.1,0-0.1S11.8,14.8,11.8,14.8z"/>
		<g>
			<path class="st1" d="M10.6,4.4H5.6C5,4.4,4.4,4.9,4.4,5.6v1.3C5,6.6,5.3,6.5,5.3,6.5S5.2,6.1,5.3,5.7c0-0.3,0.5-0.3,0.7-0.3
				c0.2,0,0.7,0.2,0.8,0.4C7,6.2,7.3,6.4,7.3,6.4s0.7,0,1.2,0.1c0.6,0.1,0.7,0.2,0.8,0.4c0.2,0.2,0.1,0.2,0.4,0.3
				c0.2,0.1,1.5,0.3,1.5,0.3s0.1,0.1,0.1,0.2c0,0.1-0.1,0.3-0.1,0.3s0.1,0.3-0.1,0.5c-0.2,0.3-0.5,0.5-1,0.7
				C9.6,9.4,9.3,9.3,8.8,9.5c-0.5,0.2-1.5,0.9-1.7,1.2c-0.2,0.3-0.5,0.6-0.5,1h4c0.6,0,1.1-0.5,1.1-1.1V5.6
				C11.8,4.9,11.3,4.4,10.6,4.4z"/>
			<path d="M10.6,3.1H5.6c-1.4,0-2.5,1.1-2.5,2.5v1.8v3.3c0,1.4,1.1,2.5,2.5,2.5h1.1h3.9c1.4,0,2.5-1.1,2.5-2.5V5.6
				C13.1,4.2,12,3.1,10.6,3.1z M11.8,10.6c0,0.6-0.5,1.1-1.1,1.1h-4c0-0.3,0.3-0.7,0.5-1c0.3-0.4,1.3-1,1.7-1.2
				c0.5-0.2,0.8-0.1,1.3-0.3c0.6-0.2,0.8-0.4,1-0.7c0.1-0.2,0.1-0.5,0.1-0.5s0.1-0.1,0.1-0.3c0-0.1-0.1-0.2-0.1-0.2S9.9,7.3,9.7,7.2
				C9.5,7.1,9.5,7.2,9.3,6.9C9.2,6.7,9.1,6.6,8.5,6.5C7.9,6.4,7.3,6.4,7.3,6.4S7,6.2,6.8,5.8C6.7,5.7,6.2,5.5,6,5.5
				c-0.2,0-0.7-0.1-0.7,0.3c0,0.3,0.1,0.8,0.1,0.8S5,6.6,4.4,6.8V5.6c0-0.6,0.5-1.1,1.1-1.1h5.1c0.6,0,1.1,0.5,1.1,1.1V10.6z"/>
		</g>
	</g>
</g>
</svg>
